<?xml version="1.0" encoding="utf-8"?>
<!-- Generator: Adobe Illustrator 27.5.0, SVG Export Plug-In . SVG Version: 6.00 Build 0)  -->
<svg version="1.1" xmlns="http://www.w3.org/2000/svg" xmlns:xlink="http://www.w3.org/1999/xlink" x="0px" y="0px"
	 viewBox="0 0 500 500" style="enable-background:new 0 0 500 500;" xml:space="preserve">
<g id="BACKGROUND">
	<rect style="fill:#FFFDFB;" width="90" height="90"/>
</g>
<g id="OBJECTS">
	<g>
		<g>
			<path style="fill:#1D365C;" d="M241.098,218.108l-19.153-38.911c1.579-2.527,1.862-5.784,0.449-8.654l-1.702-3.458l-0.483-0.982
				l8.2-4.036l-6.175-12.546c0.471,0.957,0.95,1.931,1.447,2.939c16.4-8.072,25.57-0.652,25.57-0.652s0,0,6.833-3.363
				c-14.544-29.547-42.218-15.925-42.218-15.925l-42.025,20.685l5.017,10.192l-7.687,3.784l-1.798-3.652
				c-1.778-3.612-6.147-5.099-9.759-3.321l-8.197,4.035l0,0l-0.76,0.375c-0.903,0.444-1.673,1.051-2.293,1.767
				c-0.31,0.358-0.582,0.743-0.814,1.15c-0.116,0.203-0.222,0.411-0.318,0.624c-0.288,0.638-0.483,1.316-0.579,2.012
				c-0.191,1.391,0.016,2.852,0.683,4.206l8.106,16.467c1.778,3.612,6.147,5.099,9.759,3.321l0.76-0.374l8.197-4.035
				c3.612-1.778,5.099-6.147,3.321-9.759l-1.51-3.067l7.688-3.784l4.729,9.607l8.712-4.288l0.483,0.982l1.702,3.458
				c1.545,3.139,4.693,4.954,7.969,4.965l18.835,38.265c3.26-1.036,6.551-2.008,9.738-2.836
				C235.072,220.413,237.825,218.38,241.098,218.108z"/>
			<path style="fill:#1D365C;" d="M265.388,223.296c3.621,0.94,7.374,2.068,11.066,3.264l24.414-41.615
				c10.141,0.826,20.341-4.064,25.834-13.428c5.493-9.363,4.785-20.652-0.884-29.102l-9.424,16.064
				c-1.685,2.872-5.379,3.835-8.252,2.15l-10.07-5.908c-2.872-1.685-3.835-5.38-2.15-8.252l9.424-16.064
				c-10.141-0.826-20.341,4.064-25.834,13.428c-5.493,9.363-4.785,20.652,0.884,29.101l-26.469,45.118h3.452
				C260.975,218.053,264.047,220.195,265.388,223.296z"/>
		</g>
		<g>
			<path style="fill:#E07019;" d="M311.865,283.513l-6.069-27.557c-1.777-9.568-8.425-17.514-17.542-20.92
				c-11.996-4.481-28.467-9.925-38.255-10.204l0-0.027c-0.125,0-0.265,0.012-0.392,0.014c-0.127-0.002-0.267-0.014-0.392-0.014
				l0,0.027c-9.788,0.279-26.259,5.723-38.255,10.204c-9.116,3.405-15.765,11.351-17.542,20.92l-6.069,27.557h62.363H311.865z"/>
			<path style="fill:#F77D39;" d="M322.182,280.256h-5.533l-4.354-20.134c-0.248-1.439-1.496-2.491-2.956-2.491h-4.108v22.624
				h-40.248l-1.997-52.624c-0.105-3.02-2.584-5.414-5.605-5.414h-7.554h-0.436h-7.554c-3.022,0-5.5,2.394-5.605,5.414l-1.997,52.624
				h-40.248v-22.624h-4.108c-1.46,0-2.708,1.052-2.957,2.491l-4.354,20.134h-4.749c-1.364,0-2.47,1.106-2.47,2.47v11.591
				c22.908-4.83,48.341-7.469,74.652-7.469c26.311,0,51.744,2.639,74.652,7.469v-11.591
				C324.652,281.362,323.546,280.256,322.182,280.256z"/>
		</g>
		<path style="fill:#1D365C;" d="M398.763,330.07c-28.752-22.799-84.589-38.264-148.763-38.264s-120.012,15.465-148.763,38.264
			c39.869-14.967,91.876-24.023,148.763-24.023S358.894,315.102,398.763,330.07z"/>
	</g>
</g>
<g id="TEXTS">
	<g>
		<text transform="matrix(1 0 0 1 175.4482 339.8936)" style="fill:#1D365C; font-family:'Poppins-Black'; font-size:21.6566px;">CONSTRUCTION</text>
		<text transform="matrix(1 0 0 1 170.1533 360.7334)" style="fill:#E07019; font-family:'Poppins-Medium'; font-size:16.9802px;">BUILD &amp; RENOVATION</text>
	</g>
</g>
</svg>
